<svg width="26" height="24" viewBox="0 0 26 24" fill="none" xmlns="http://www.w3.org/2000/svg">
<path d="M10.1348 20.7733V17.7156C10.1348 16.9351 10.7722 16.3023 11.5584 16.3023H14.4326C14.8102 16.3023 15.1723 16.4512 15.4393 16.7163C15.7063 16.9813 15.8563 17.3408 15.8563 17.7156V20.7733C15.8539 21.0978 15.9821 21.4099 16.2124 21.6402C16.4427 21.8705 16.7561 22 17.0829 22H19.0438C19.9596 22.0023 20.8388 21.6428 21.4872 21.0008C22.1356 20.3588 22.5 19.487 22.5 18.5778V9.86686C22.5 9.13246 22.1721 8.43584 21.6046 7.96467L14.934 2.67587C13.7737 1.74856 12.1111 1.7785 10.9854 2.74698L4.46701 7.96467C3.87274 8.42195 3.51755 9.12064 3.5 9.86686V18.5689C3.5 20.4639 5.04738 22 6.95617 22H8.87229C9.55123 22 10.103 21.4562 10.1079 20.7822L10.1348 20.7733Z" fill="#7E7979"/>
</svg>
