<svg width="16" height="15" viewBox="0 0 16 15" fill="none" xmlns="http://www.w3.org/2000/svg">
<path d="M16 13.8C16 14.19 15.8682 14.4875 15.6047 14.6925C15.3411 14.8975 15.0177 15 14.6343 15H1.36568C0.98233 15 0.65888 14.895 0.395328 14.685C0.131776 14.475 0 14.18 0 13.8C0 13.5 0.0862534 13.195 0.25876 12.885L6.88589 0.825C7.20216 0.275 7.57592 0 8.00719 0C8.43845 0 8.80264 0.275 9.09973 0.825L15.7412 12.9C15.9137 13.22 16 13.52 16 13.8ZM8.9991 6.135V3.945H7.0009V6.135C7.0009 6.275 7.01048 6.4075 7.02965 6.5325C7.04882 6.6575 7.07517 6.7975 7.10872 6.9525C7.14226 7.1075 7.16861 7.24 7.18778 7.35L7.56155 9.78H8.4097L8.79784 7.35C8.81701 7.25 8.84576 7.12 8.8841 6.96C8.92243 6.8 8.95118 6.6575 8.97035 6.5325C8.98952 6.4075 8.9991 6.275 8.9991 6.135ZM8.9991 11.94C8.9991 11.65 8.90087 11.405 8.7044 11.205C8.50794 11.005 8.27074 10.905 7.99281 10.905C7.72447 10.905 7.49206 11.005 7.2956 11.205C7.09913 11.405 7.0009 11.65 7.0009 11.94C7.0009 12.23 7.09913 12.4775 7.2956 12.6825C7.49206 12.8875 7.72447 12.99 7.99281 12.99C8.27074 12.99 8.50794 12.8875 8.7044 12.6825C8.90087 12.4775 8.9991 12.23 8.9991 11.94Z" fill="#FFE600"/>
</svg>
